"Klaus" S02E19 aired 4/21/2011

Stefan and Damon are furious when they discover that Elena has defied them both to make a new ally and take control of the plan to out-maneuver Klaus. Disagreement over how to protect Elena leads to growing tension between the Salvatore brothers. Meanwhile, Stefan has his hands full trying to keep a confused and frightened Jenna safe. Flashbacks to 1491 reveal Katherine's introduction to Elijah and Klaus, along with the origin of the moonstone curse. Elena learns shocking new information about Klaus' motives

General
Complete name                    : C:\Users\James\Videos\The Vampire Diaries S02E19 720p HDTV_JHW.mp4
Format                           : MPEG-4
Format profile                   : Base Media / Version 2
Codec ID                         : mp42
File size                        : 394 MiB
Duration                         : 41mn 42s
Overall bit rate                 : 1 321 Kbps
Encoded date                     : UTC 2011-04-21 02:43:19
Tagged date                      : UTC 2011-04-21 02:43:19
Writing library                  : AVS 

Video
ID                               : 1
Format                           : AVC
Format/Info                      : Advanced Video Codec
Format profile                   : Main@L5.1
Format settings, CABAC           : Yes
Format settings, ReFrames        : 2 frames
Codec ID                         : avc1
Codec ID/Info                    : Advanced Video Coding
Duration                         : 41mn 42s
Bit rate mode                    : Variable
Bit rate                         : 1 206 Kbps
Width                            : 1 280 pixels
Height                           : 720 pixels
Display aspect ratio             : 16:9
Frame rate mode                  : Constant
Frame rate                       : 29.970 fps
Color space                      : YUV
Chroma subsampling               : 4:2:0
Bit depth                        : 8 bits
Scan type                        : Progressive
Bits/(Pixel*Frame)               : 0.044
Stream size                      : 360 MiB (91%)
Language                         : English
Encoded date                     : UTC 2011-04-21 02:43:19
Tagged date                      : UTC 2011-04-21 02:43:19

Audio
ID                               : 2
Format                           : AAC
Format/Info                      : Advanced Audio Codec
Format profile                   : LC
Codec ID                         : 40
Duration                         : 41mn 42s
Bit rate mode                    : Constant
Bit rate                         : 106 Kbps
Nominal bit rate                 : 96.0 Kbps
Channel(s)                       : 2 channels
Channel positions                : Front: L R
Sampling rate                    : 48.0 KHz
Compression mode                 : Lossy
Stream size                      : 31.5 MiB (8%)
Language                         : English
Encoded date                     : UTC 2011-04-21 02:43:19
Tagged date                      : UTC 2011-04-21 02:43:19
 
http://img845.imageshack.us/img845/1070/vlcsnap2011042122h52m58.png 
http://img851.imageshack.us/img851/5827/vlcsnap2011042122h53m09.png 
http://img59.imageshack.us/img59/3873/vlcsnap2011042122h53m38.png 
http://img232.imageshack.us/img232/2883/vlcsnap2011042122h55m17.png 
http://img607.imageshack.us/img607/637/vlcsnap2011042122h56m22.png